<?xml version="1.0" standalone="no"?>
<!DOCTYPE svg PUBLIC "-//W3C//DTD SVG 20010904//EN"
 "http://www.w3.org/TR/2001/REC-SVG-20010904/DTD/svg10.dtd">
<svg version="1.0" xmlns="http://www.w3.org/2000/svg"
 width="1077.000000pt" height="450.000000pt" viewBox="0 0 1077.000000 450.000000"
 preserveAspectRatio="xMidYMid meet">

<g transform="translate(0.000000,450.000000) scale(0.100000,-0.100000)"
fill="#000000" stroke="none">
<path d="M6465 3909 c-27 -11 -62 -19 -77 -17 -34 5 -34 0 -3 -62 14 -27 25
-54 25 -59 0 -5 -102 -103 -227 -217 -126 -113 -229 -212 -231 -219 -2 -7 13
-67 33 -134 20 -66 35 -125 33 -130 -1 -5 -65 -75 -140 -156 -119 -127 -136
-150 -127 -166 10 -19 10 -19 37 1 15 11 106 96 202 189 l174 168 -43 22 c-35
18 -42 26 -37 44 2 12 17 87 31 167 15 80 28 146 29 147 3 3 379 -16 381 -20
5 -5 55 -273 55 -289 0 -10 -4 -18 -9 -18 -4 0 -41 -18 -80 -39 l-72 -40 -112
50 c-62 28 -116 55 -121 59 -5 5 -1 52 9 109 l18 101 81 0 c45 0 98 -3 120 -7
l38 -6 -7 -91 c-3 -50 -10 -94 -14 -98 -11 -12 -141 31 -141 47 0 38 10 44 50
30 36 -13 38 -12 44 8 14 53 10 57 -58 57 l-64 0 -7 -46 c-3 -26 -9 -52 -11
-58 -3 -8 30 -27 83 -50 l87 -38 54 26 c40 20 52 31 48 44 -2 9 -12 55 -21
102 -9 47 -20 88 -23 91 -4 4 -68 9 -143 13 l-135 6 -23 -121 c-14 -73 -19
-125 -13 -131 11 -11 273 -148 283 -148 8 0 261 135 291 155 16 10 0 38 -147
255 -91 134 -165 248 -165 253 0 8 99 131 174 215 l19 22 -49 -1 c-27 0 -71
-9 -99 -20z"/>
<path d="M6635 3819 c-53 -62 -99 -117 -101 -124 -4 -8 233 -375 292 -453 1
-2 15 3 31 11 28 15 29 14 201 -119 94 -74 172 -140 172 -145 0 -9 -166 -250
-238 -347 l-17 -23 -185 62 c-102 34 -188 67 -192 73 -4 6 -8 56 -8 112 l0
101 136 87 c75 47 140 86 146 86 9 0 159 -113 202 -152 20 -18 19 -19 -24 -81
-24 -34 -61 -86 -82 -114 l-38 -53 -109 72 c-60 40 -107 77 -104 83 4 10 127
108 141 112 4 1 16 -9 26 -24 l19 -26 -38 -31 -37 -32 42 -28 c23 -15 43 -26
44 -24 1 2 19 26 39 54 20 29 37 56 36 60 0 5 -27 31 -60 57 l-59 49 -100 -64
-100 -63 0 -70 0 -70 139 -46 139 -47 29 42 c16 22 59 85 96 138 l68 97 -132
102 -131 102 -37 -21 c-20 -11 -92 -50 -161 -87 -69 -37 -135 -73 -146 -81
l-21 -13 59 -239 c66 -267 57 -252 152 -252 l49 0 -6 43 c-4 23 -10 59 -13 79
l-6 36 123 -44 c67 -24 128 -49 135 -55 7 -5 43 -52 81 -104 37 -52 71 -95 75
-95 15 0 108 341 132 485 19 110 36 453 36 708 0 174 -1 188 -17 185 -13 -2
-19 -16 -23 -48 -5 -45 -5 -45 -41 -42 -41 4 -36 11 -89 -143 -17 -50 -35 -96
-39 -104 -7 -11 -43 -14 -157 -15 l-148 -1 -113 145 c-63 80 -116 151 -119
158 -4 7 32 57 82 115 128 147 121 137 91 137 -21 0 -46 -23 -122 -111z"/>
<path d="M6850 3920 c19 -13 30 -13 30 0 0 6 -10 10 -22 10 -19 0 -20 -2 -8
-10z"/>
<path d="M6220 3875 c-10 -12 -10 -21 0 -46 16 -37 25 -28 -175 -188 -91 -73
-159 -121 -173 -121 -14 0 -26 -8 -31 -23 -5 -13 -30 -40 -55 -61 -25 -20 -46
-42 -46 -47 0 -5 24 -9 53 -9 l52 0 195 176 c107 97 208 189 224 204 l30 29
-24 51 c-25 54 -31 58 -50 35z"/>
<path d="M6758 3761 c-32 -38 -58 -74 -58 -80 0 -6 37 -58 82 -116 l82 -106
94 3 94 3 34 94 c19 51 34 97 34 101 0 6 -44 30 -55 30 -2 0 -33 -40 -69 -90
-37 -49 -70 -90 -74 -90 -4 0 -43 36 -87 81 l-80 80 35 30 34 29 46 -45 47
-46 26 40 27 40 -39 11 c-42 11 -64 31 -80 73 -6 15 -16 27 -23 27 -7 0 -39
-31 -70 -69z"/>
<path d="M7390 3700 c0 -5 7 -58 15 -117 29 -212 79 -722 103 -1048 7 -99 7
-100 32 -97 39 5 123 33 420 137 151 53 351 123 444 156 94 33 172 62 175 65
3 4 -3 4 -14 1 -82 -25 -151 -38 -187 -35 -39 3 -44 7 -73 57 -28 47 -154 171
-174 171 -22 0 -49 -49 -54 -100 -13 -140 -116 -261 -270 -318 -54 -20 -187
-53 -187 -46 0 2 32 25 72 51 79 52 186 148 220 197 14 19 -5 6 -48 -34 -67
-63 -223 -175 -231 -167 -2 3 5 26 16 53 22 57 57 214 65 294 l5 55 -10 -45
c-29 -131 -44 -184 -80 -280 -22 -57 -43 -108 -48 -113 -11 -11 -36 66 -52
157 -31 182 20 368 143 523 48 60 146 148 156 139 2 -3 0 -18 -6 -34 -9 -25
-5 -40 26 -103 34 -70 36 -80 36 -177 1 -87 3 -101 16 -96 47 20 136 44 163
44 18 0 37 4 44 8 18 11 -16 78 -70 138 -35 39 -48 62 -53 95 -5 34 -23 67
-80 142 -41 53 -79 109 -85 124 -5 14 -7 52 -3 84 4 32 4 69 0 83 -6 26 -8 26
-99 26 -50 -1 -123 -5 -161 -10 -60 -7 -75 -6 -107 11 -42 21 -59 24 -59 9z"/>
<path d="M5698 3243 c6 -54 8 -56 80 -79 28 -9 52 -21 52 -26 0 -7 -75 -121
-136 -206 -1 -2 -12 1 -23 8 -16 8 -21 8 -21 -1 0 -16 31 -79 39 -79 6 0 115
116 190 202 l32 37 -27 89 -27 90 -45 6 c-25 3 -62 6 -82 6 l-38 0 6 -47z"/>
<path d="M6170 2977 c-47 -46 -143 -138 -214 -205 l-130 -123 25 -24 24 -24
129 160 c71 87 130 159 131 159 15 0 251 -72 257 -78 5 -5 28 -67 51 -138 31
-94 47 -130 60 -132 11 -2 17 3 17 16 0 20 -85 371 -91 376 -2 2 -42 24 -89
49 l-85 46 -85 -82z"/>
<path d="M6067 2710 c-74 -90 -97 -125 -92 -140 8 -26 62 -70 86 -70 19 0 17
4 -10 37 -17 21 -31 42 -31 48 1 10 223 165 238 165 8 0 92 -163 92 -179 0 -9
-45 -31 -64 -31 -7 0 -23 22 -36 50 l-23 49 -43 -31 c-24 -17 -44 -33 -44 -36
0 -2 10 -18 22 -34 l21 -31 80 7 c78 7 138 29 136 51 0 5 -17 57 -37 115 l-37
104 -75 23 c-41 13 -77 23 -80 23 -3 -1 -49 -55 -103 -120z"/>
<path d="M8600 2809 c-13 -9 -12 -10 3 -5 43 14 6 -18 -125 -109 -240 -164
-363 -235 -658 -379 -132 -64 -210 -125 -401 -316 -214 -213 -459 -500 -459
-537 0 -10 16 -43 36 -73 35 -56 76 -169 89 -250 8 -51 45 -129 85 -180 15
-19 36 -56 47 -81 26 -58 60 -74 147 -67 34 3 73 12 87 19 24 14 24 14 -16 19
-22 3 -55 13 -74 23 -18 10 -42 17 -52 14 -11 -3 -19 -2 -19 3 0 17 52 20 82
5 37 -18 76 -19 115 -4 15 6 73 12 128 14 90 2 100 5 100 21 0 13 -8 20 -28
22 -15 2 -25 8 -22 13 8 12 52 12 60 -1 11 -17 24 -11 40 20 8 16 15 31 15 33
0 8 -107 -5 -149 -19 -25 -8 -68 -14 -96 -14 -29 0 -78 -9 -110 -20 -70 -24
-108 -25 -140 -4 -15 10 -33 13 -47 9 -22 -7 -22 -6 -6 10 14 16 21 16 47 5
31 -13 81 -7 81 9 0 5 -19 26 -42 46 -39 34 -47 36 -91 32 -46 -4 -47 -3 -31
14 28 31 74 24 135 -21 65 -49 89 -56 140 -41 23 7 59 9 84 5 50 -7 60 6 22
30 -15 11 -45 15 -92 13 -40 -1 -79 4 -90 11 -18 10 -15 11 21 12 44 0 81 20
70 38 -13 22 -116 62 -159 63 -38 0 -40 1 -17 10 14 6 42 8 63 6 46 -6 45 9
-2 34 -38 20 -71 48 -71 60 0 12 90 -39 125 -71 55 -50 223 -170 252 -181 18
-6 39 -6 54 -1 24 9 23 10 -13 25 -20 8 -44 28 -54 44 -9 15 -33 42 -53 60
-50 45 -31 53 22 9 24 -20 47 -33 50 -29 4 3 7 22 7 42 0 27 3 32 10 21 5 -8
10 -34 10 -57 0 -48 25 -73 73 -73 29 0 111 56 102 70 -3 4 -22 10 -42 13 -41
7 -83 32 -83 49 0 5 16 1 36 -11 24 -14 52 -21 88 -21 51 0 54 2 59 28 8 42
-7 47 -55 18 -47 -28 -68 -32 -68 -16 0 6 6 10 13 10 16 0 53 38 45 45 -3 3
-103 1 -223 -4 -179 -8 -223 -8 -249 4 l-31 13 27 1 c15 1 39 -3 53 -9 19 -7
33 -6 52 4 l26 13 -59 28 c-80 38 -185 46 -217 17 -34 -31 -90 -62 -112 -62
-14 0 -9 7 20 24 50 30 77 73 55 86 -8 5 -40 7 -71 3 -37 -4 -59 -2 -63 6 -4
6 0 11 11 11 10 1 36 9 57 19 42 20 62 17 110 -14 13 -9 40 -18 61 -20 55 -7
41 13 -44 61 -40 23 -80 49 -90 58 -10 9 -30 16 -44 16 -32 0 -36 16 -6 25 13
5 33 -2 60 -19 21 -15 39 -23 39 -18 0 12 -30 54 -69 95 -42 45 -26 49 24 6
l35 -31 0 30 c0 57 17 42 23 -19 5 -61 33 -109 63 -109 7 0 34 -21 58 -47 29
-30 43 -40 40 -27 -2 10 -13 55 -24 99 -19 80 -19 114 1 57 13 -39 23 -40 54
-6 33 36 33 9 0 -40 l-24 -36 25 -59 c41 -94 74 -85 40 11 -21 59 3 33 34 -38
39 -85 60 -96 188 -92 l97 3 -37 17 c-21 9 -38 23 -38 31 0 28 -27 47 -79 57
-69 13 -96 30 -110 72 l-11 33 25 -32 c29 -36 81 -55 121 -44 l26 7 -27 32
c-25 30 -26 32 -6 32 16 0 28 -15 50 -65 24 -52 37 -68 63 -79 18 -8 42 -24
52 -35 17 -18 72 -41 100 -41 6 0 -4 15 -20 33 -43 46 -75 127 -39 97 8 -7 15
-18 15 -26 0 -31 25 -23 74 24 60 57 57 62 -28 62 -30 0 -60 -6 -72 -15 -22
-17 -74 -20 -74 -4 0 5 4 8 9 5 5 -4 16 -4 24 0 11 4 5 16 -27 48 -39 42 -42
43 -68 30 -31 -16 -111 -19 -137 -4 -10 5 -24 23 -31 40 -7 16 -16 30 -19 30
-4 0 -16 7 -27 16 -18 14 -18 15 6 8 14 -4 40 -20 58 -35 22 -20 44 -29 67
-29 34 0 46 12 25 25 -6 4 -19 24 -31 46 -11 22 -36 58 -56 79 -19 22 -31 40
-26 40 11 0 59 -51 96 -101 20 -28 35 -38 65 -43 27 -4 52 -18 75 -41 50 -50
93 -65 184 -65 l78 1 -45 23 c-101 52 -120 64 -108 69 7 2 35 -4 61 -14 47
-19 48 -19 37 0 -5 11 -15 23 -20 26 -6 3 -10 10 -10 16 0 19 22 8 68 -35 26
-24 58 -49 71 -56 22 -11 27 -10 43 10 10 12 18 28 18 36 0 17 -33 18 -60 2
-15 -10 -23 -9 -40 7 -24 22 -20 31 8 16 23 -12 64 11 47 27 -16 15 -119 42
-162 42 -35 0 -96 -24 -134 -51 -17 -13 -69 -5 -69 10 0 5 14 8 31 7 18 0 34
4 36 10 4 11 -74 47 -129 60 -15 3 -53 28 -84 56 -46 40 -62 49 -88 46 -26 -2
-36 -11 -58 -53 -28 -52 -45 -64 -93 -63 l-30 0 31 13 c35 16 49 31 57 63 4
18 -1 26 -24 37 -16 9 -29 20 -29 25 0 13 7 13 31 -1 15 -8 34 -6 74 6 67 22
99 15 149 -33 38 -37 38 -37 23 -7 -31 61 -78 95 -132 95 -15 0 -33 12 -49 32
-32 41 -26 48 14 15 24 -21 40 -26 80 -25 l50 1 -6 35 c-5 26 -4 33 5 27 7 -4
10 -13 7 -20 -6 -17 42 -87 57 -82 7 2 20 19 30 38 19 34 19 34 12 4 -15 -64
-22 -128 -17 -147 2 -10 19 -26 36 -35 33 -17 128 -45 134 -39 6 7 -60 119
-86 149 -28 29 -20 36 14 12 12 -8 24 -12 28 -8 9 10 -6 57 -23 70 -9 7 -11
13 -5 13 6 0 23 -9 38 -21 29 -23 53 -20 62 8 17 53 23 58 23 20 1 -28 -6 -45
-29 -69 -19 -19 -30 -41 -30 -59 0 -37 54 -99 86 -99 22 0 22 2 12 33 -6 17
-15 38 -21 45 -5 6 -5 12 0 12 5 0 17 -14 27 -31 14 -23 41 -42 103 -71 47
-21 88 -37 90 -34 3 3 3 16 -1 30 -5 19 -18 29 -57 43 -67 23 -109 62 -109
100 0 16 -7 39 -16 52 -16 22 -15 23 2 19 11 -1 28 -23 40 -47 24 -50 57 -81
85 -81 24 0 24 17 0 72 -23 54 -45 73 -99 87 -32 9 -49 21 -68 51 -15 22 -35
40 -44 40 -20 0 -43 23 -33 33 3 4 -2 16 -12 27 -16 18 -17 20 -1 20 9 0 22
-11 28 -25 6 -14 19 -25 29 -25 10 0 27 -13 38 -29 20 -28 76 -59 87 -48 4 3
-7 35 -24 71 -41 87 -75 109 -154 100 -48 -5 -62 -3 -93 16 -37 23 -43 40 -7
21 26 -14 55 -14 103 0 36 11 37 13 24 33 -8 11 -15 30 -14 41 0 19 0 19 9 -1
9 -22 56 -64 71 -64 5 0 9 6 9 13 0 6 12 40 27 74 29 64 49 83 41 38 -6 -30
15 -34 50 -9 24 17 39 14 27 -6 -3 -5 -28 -21 -54 -35 -74 -37 -80 -78 -25
-170 20 -33 43 -80 50 -105 8 -25 23 -56 34 -70 l20 -25 0 23 c0 13 -14 55
-31 94 -34 78 -34 75 13 203 39 107 52 85 15 -26 -19 -57 -23 -79 -15 -106 9
-32 28 -37 28 -7 0 8 7 29 16 47 12 21 13 32 5 35 -6 2 -11 8 -11 14 0 5 8 7
18 4 33 -11 54 25 47 81 -5 35 -4 44 4 33 6 -8 11 -25 11 -37 0 -13 5 -23 11
-23 15 0 119 89 119 101 0 6 -13 15 -30 20 -16 6 -30 15 -30 20 0 13 18 11 57
-8 l36 -17 28 32 c16 18 29 39 29 48 0 8 4 13 9 10 23 -15 140 160 166 247 24
84 26 107 7 107 -9 0 -24 -5 -32 -11z"/>
<path d="M4933 2769 c-176 -87 -68 -362 121 -309 147 41 170 240 36 308 -55
27 -103 28 -157 1z"/>
<path d="M2794 2678 c-15 -47 -39 -108 -129 -328 -135 -332 -256 -614 -301
-699 -30 -58 -54 -106 -54 -108 0 -2 77 -2 172 -1 l171 3 13 60 c7 33 26 98
42 145 l29 85 193 0 193 0 38 -105 c21 -58 41 -124 45 -147 l6 -42 184 0 c101
0 184 3 184 5 0 3 -9 18 -20 33 -10 15 -37 63 -58 107 -53 105 -398 939 -414
998 l-12 46 -132 0 -132 0 -18 -52z m191 -456 c30 -84 55 -157 55 -162 0 -6
-47 -10 -115 -10 -63 0 -115 1 -115 3 0 3 96 292 105 316 3 8 7 12 10 9 2 -2
29 -73 60 -156z"/>
<path d="M3822 2711 c-60 -21 -114 -68 -143 -124 -11 -21 -25 -77 -31 -125 -6
-48 -14 -91 -18 -97 -18 -24 -80 -144 -80 -154 0 -6 19 -11 45 -11 l45 0 0
-267 c0 -205 -4 -281 -15 -323 -8 -30 -15 -58 -15 -62 0 -5 79 -8 175 -8 96 0
175 3 175 8 0 4 -7 39 -15 77 -11 51 -15 138 -15 323 l0 252 75 0 75 0 0 85 0
85 -75 0 -75 0 0 44 c0 113 51 150 149 106 24 -11 45 -19 47 -18 1 2 12 40 23
85 12 45 24 88 27 96 4 11 -11 18 -60 31 -88 22 -226 21 -294 -3z"/>
<path d="M6832 2361 c-23 -173 -23 -173 83 -295 41 -47 53 -69 65 -123 8 -36
19 -66 24 -67 14 -2 37 76 31 105 -3 14 -35 70 -71 124 -76 116 -99 183 -90
266 6 50 4 59 -12 68 -17 9 -19 3 -30 -78z"/>
<path d="M4663 2383 c-13 -2 -53 -38 -91 -79 -38 -41 -72 -74 -75 -74 -4 0 -7
32 -7 70 l0 70 -161 0 c-136 0 -160 -2 -156 -14 28 -74 32 -114 32 -401 -1
-252 -3 -308 -17 -352 -10 -30 -13 -55 -8 -58 5 -3 86 -5 180 -4 154 1 171 3
165 18 -24 60 -35 162 -35 332 l0 185 33 31 c63 60 100 70 202 51 17 -3 21 8
38 106 10 59 16 110 13 113 -7 8 -87 12 -113 6z"/>
<path d="M5629 2375 c-136 -27 -254 -116 -311 -234 -64 -132 -46 -325 39 -439
71 -94 152 -143 264 -162 80 -14 232 -5 248 13 10 13 91 205 91 217 0 4 -27
-3 -61 -17 -71 -29 -171 -33 -217 -9 -150 78 -150 354 0 432 39 20 135 17 187
-6 24 -11 47 -20 52 -20 5 0 9 47 9 104 l0 104 -69 16 c-82 19 -142 19 -232 1z"/>
<path d="M6260 2379 c-103 -17 -118 -26 -130 -72 -6 -23 -17 -64 -25 -92 -8
-27 -13 -50 -12 -52 2 -1 25 4 52 12 55 17 161 20 199 5 25 -9 66 -63 66 -87
0 -6 -44 -26 -97 -44 -172 -56 -244 -104 -287 -191 -75 -150 17 -307 191 -324
58 -6 58 -6 123 45 l65 51 3 -38 c2 -20 9 -40 15 -44 14 -9 291 -11 300 -2 3
3 -1 27 -9 52 -11 34 -17 123 -22 328 l-7 281 -30 48 c-69 112 -207 154 -395
124z m148 -571 l-3 -83 -52 -3 c-45 -3 -56 1 -78 22 -28 28 -33 77 -13 121 10
23 16 25 80 25 l69 0 -3 -82z"/>
<path d="M4833 2356 c29 -75 32 -114 32 -396 0 -253 -3 -303 -17 -352 -10 -31
-18 -59 -18 -62 0 -8 345 -8 352 0 3 3 -2 26 -10 52 -25 72 -24 623 1 704 9
31 17 59 17 62 0 3 -81 6 -181 6 -153 0 -180 -2 -176 -14z"/>
<path d="M4008 1378 c-49 -13 -101 -65 -117 -118 -31 -103 36 -213 137 -227
56 -7 102 3 134 30 25 20 26 24 13 41 -13 18 -15 18 -48 -3 -67 -41 -144 -18
-172 51 -19 48 -19 69 -1 113 26 61 110 84 171 46 30 -18 31 -18 47 5 17 21
16 23 -6 38 -22 14 -44 21 -98 30 -13 2 -40 -1 -60 -6z"/>
<path d="M4855 1375 c-62 -22 -87 -71 -65 -126 14 -34 45 -52 114 -70 30 -7
53 -20 63 -36 14 -22 14 -25 -2 -43 -23 -26 -79 -26 -127 -1 -35 19 -37 19
-52 2 -20 -21 -11 -32 47 -56 74 -31 162 -11 186 42 12 27 14 63 5 88 -7 18
-63 48 -109 59 -73 18 -97 61 -50 92 23 15 29 15 77 -1 50 -16 53 -16 65 1 12
16 10 20 -19 35 -51 26 -89 30 -133 14z"/>
<path d="M6470 1380 c-47 -8 -73 -23 -104 -60 -72 -86 -49 -211 49 -267 145
-82 310 65 250 222 -28 75 -111 120 -195 105z m96 -66 c108 -71 44 -251 -83
-231 -108 18 -137 180 -41 234 32 18 94 16 124 -3z"/>
<path d="M2380 1205 l0 -175 25 0 c23 0 24 3 27 73 l3 72 88 3 c85 3 88 4 85
25 -3 21 -9 22 -91 25 l-88 3 3 47 3 47 98 3 c96 3 97 3 97 27 l0 25 -125 0
-125 0 0 -175z"/>
<path d="M2712 1208 c3 -165 4 -173 23 -173 19 0 20 8 23 173 l2 172 -25 0
-25 0 2 -172z"/>
<path d="M2860 1204 l0 -175 28 3 27 3 5 120 5 120 90 -115 c97 -125 102 -130
128 -130 16 0 17 15 17 175 l0 175 -30 0 -29 0 -3 -117 -3 -117 -90 116 c-75
98 -94 117 -117 117 l-28 1 0 -176z"/>
<path d="M3230 1355 c0 -23 3 -25 50 -25 l50 0 0 -134 c0 -74 3 -141 6 -150 3
-9 17 -16 30 -16 l23 0 3 148 3 147 53 3 c48 3 52 5 52 28 l0 24 -135 0 -135
0 0 -25z"/>
<path d="M3569 1376 c-3 -3 -3 -298 0 -339 1 -4 56 -6 124 -5 l122 3 0 25 c0
24 0 24 -98 23 l-98 -1 3 50 3 51 80 1 c75 1 80 2 83 24 3 21 1 22 -82 22
l-86 0 0 50 0 50 100 0 100 0 0 25 0 25 -123 0 c-68 0 -126 -2 -128 -4z"/>
<path d="M4262 1208 l3 -171 28 -4 27 -4 0 76 0 75 85 0 85 0 0 -69 c0 -73 7
-86 40 -76 19 6 20 15 20 176 l0 169 -30 0 -30 0 0 -75 0 -75 -85 0 -85 0 0
75 0 75 -30 0 -30 0 2 -172z"/>
<path d="M5080 1355 c0 -23 3 -25 49 -25 l49 0 7 -93 c4 -51 6 -111 5 -133 -5
-68 -2 -76 23 -72 21 3 22 7 27 148 l5 145 53 3 c48 3 52 5 52 28 l0 24 -135
0 -135 0 0 -25z"/>
<path d="M5420 1263 c0 -140 18 -190 77 -218 45 -22 124 -16 161 12 39 29 50
75 51 206 l1 117 -30 0 -30 0 0 -125 c0 -120 -1 -127 -25 -150 -16 -17 -35
-25 -60 -25 -25 0 -44 8 -60 25 -24 23 -25 30 -25 150 l0 125 -30 0 -30 0 0
-117z"/>
<path d="M5802 1208 l3 -173 65 -1 c161 -3 254 77 235 204 -5 35 -16 55 -44
83 -44 44 -91 59 -189 59 l-72 0 2 -172z m159 112 c77 -22 112 -110 70 -178
-25 -40 -55 -52 -127 -52 l-54 0 0 113 c0 63 3 117 7 120 9 10 63 8 104 -3z"/>
<path d="M6190 1358 c-1 -56 -1 -295 -1 -310 1 -12 9 -18 26 -18 l25 0 0 175
0 175 -25 0 c-19 0 -25 -5 -25 -22z"/>
<path d="M7585 851 c-36 -9 -71 -27 -105 -54 l-25 -20 64 7 c49 6 75 15 108
38 24 17 43 33 43 35 0 5 -53 1 -85 -6z"/>
</g>
</svg>
